# xmcd CD database file
#
# Track frame offsets:
#	150
#	17316
#	38678
#	52469
#	62436
#	76380
#	92536
#	109481
#	122793
#	136536
#	148546
#	158539
#
# Disc length: 2315 seconds
#
# Revision: 0
# Processed by: cddbd v1.5.2PL0 Copyright (c) Steve Scherf et al.
# Submitted via: CDex 1.51
#
DISCID=9209090c
DTITLE=The Nashville All Stars - A Tribute To Garth Brooks
DYEAR=1998
DGENRE=Country
TTITLE0=The Thunder Rolls
TTITLE1=The Dance
TTITLE2=Mr. Blue
TTITLE3=Against The Grain
TTITLE4=One Night A Day
TTITLE5=The River
TTITLE6=Friends In Low PLaces
TTITLE7=Much Too Young (To Feel This Damn Old)
TTITLE8=Standing Outside The Fire
TTITLE9=Two Of A Kind, Workin On A Full House
TTITLE10=Callin Baton Rouge
TTITLE11=If Tomorrow Never Comes
EXTD=YEAR: 1998
EXTT0=
EXTT1=
EXTT2=
EXTT3=
EXTT4=
EXTT5=
EXTT6=
EXTT7=
EXTT8=
EXTT9=
EXTT10=
EXTT11=
PLAYORDER=
